<?xml version="1.0" standalone="no"?>
<!DOCTYPE svg PUBLIC "-//W3C//DTD SVG 20010904//EN"
 "http://www.w3.org/TR/2001/REC-SVG-20010904/DTD/svg10.dtd">
<svg version="1.0" xmlns="http://www.w3.org/2000/svg"
 width="1902.000000pt" height="512.000000pt" viewBox="0 0 1902.000000 512.000000"
 preserveAspectRatio="xMidYMid meet">
<metadata>
Created by potrace 1.15, written by Peter Selinger 2001-2017
</metadata>
<g transform="translate(0.000000,512.000000) scale(0.100000,-0.100000)"
fill="#000000" stroke="none">
<path d="M9550 5100 c-20 -20 -20 -33 -20 -1020 0 -987 0 -1000 -20 -1020 -11
-11 -25 -20 -30 -20 -6 0 -93 47 -193 105 -164 95 -187 105 -231 105 -47 0
-85 -21 -710 -381 -364 -209 -671 -391 -683 -405 -12 -13 -27 -41 -32 -62 -15
-51 -15 -1503 0 -1554 5 -21 20 -49 32 -63 12 -13 319 -196 681 -405 620 -357
663 -380 708 -380 27 0 63 7 81 16 56 29 1261 726 1291 747 15 11 37 38 47 61
18 40 19 108 19 1891 0 1188 -4 1863 -10 1886 -5 19 -22 47 -37 61 -16 15
-202 123 -415 242 -412 230 -435 239 -478 196z m-252 -3075 l222 -128 0 -272
0 -272 -229 -132 c-125 -72 -233 -131 -239 -131 -10 0 -436 243 -459 262 -10
8 -13 75 -13 274 l0 264 27 17 c117 77 432 252 448 250 12 -2 121 -61 243
-132z"/>
<path d="M16585 3292 c-51 -19 -1225 -694 -1282 -738 -17 -13 -44 -50 -60 -81
l-28 -58 0 -750 0 -750 28 -58 c34 -69 46 -78 267 -205 239 -138 287 -156 420
-156 119 0 187 20 252 74 46 38 95 136 108 215 6 35 10 352 10 766 0 593 -2
708 -14 718 -9 8 -48 11 -112 9 l-99 -3 -5 -720 -5 -720 -23 -38 c-31 -48 -74
-71 -138 -71 -59 0 -99 18 -319 147 l-140 82 -3 706 c-2 663 -1 707 15 721 27
23 1202 698 1215 698 6 0 285 -158 620 -351 l608 -351 0 -712 0 -712 -610
-352 c-335 -194 -614 -352 -619 -352 -5 0 -81 43 -168 95 -88 52 -166 95 -173
95 -7 0 -44 -16 -84 -35 -39 -19 -88 -41 -108 -49 -66 -26 -72 -21 225 -195
238 -140 280 -155 369 -130 82 23 1282 718 1330 771 69 75 68 58 68 863 0 818
2 796 -74 870 -27 27 -249 161 -641 387 -330 190 -615 353 -634 363 -52 26
-137 29 -196 7z"/>
<path d="M1340 3266 c-25 -13 -326 -186 -670 -384 -486 -281 -630 -368 -647
-393 l-23 -33 0 -1033 c0 -1020 0 -1033 20 -1053 44 -44 65 -34 483 205 217
123 401 233 411 244 43 48 45 72 46 587 l0 491 23 33 c15 23 78 64 212 141
157 90 197 109 231 109 34 0 73 -18 225 -106 101 -58 190 -111 198 -117 8 -7
22 -30 32 -52 17 -37 19 -78 19 -536 l0 -496 23 -33 c17 -26 112 -85 420 -262
420 -240 444 -251 485 -210 17 17 19 51 25 472 4 249 7 708 7 1019 0 534 -1
568 -19 608 -12 25 -35 52 -58 66 -21 14 -321 188 -668 388 -704 405 -684 396
-775 345z"/>
<path d="M5190 3273 c-20 -8 -1311 -753 -1329 -767 -8 -6 -22 -29 -32 -51 -17
-38 -19 -87 -19 -803 0 -820 -1 -801 51 -849 27 -25 1248 -734 1318 -765 32
-15 54 -18 84 -14 27 5 242 123 666 368 742 428 697 401 721 441 19 31 20 55
20 821 0 765 -1 790 -20 820 -15 25 -150 108 -641 391 -342 198 -645 372 -673
387 -49 26 -110 35 -146 21z"/>
<path d="M12775 3249 c-157 -84 -1275 -736 -1297 -756 -14 -14 -31 -37 -37
-52 -8 -18 -11 -261 -9 -811 3 -767 3 -786 23 -812 13 -18 260 -164 680 -405
648 -371 661 -378 715 -378 53 0 69 8 455 223 220 122 406 230 413 239 6 9 12
34 12 54 0 31 -6 42 -32 62 -18 13 -314 185 -658 382 -344 196 -633 366 -642
377 -16 18 -18 47 -18 279 l0 258 33 24 c17 13 121 75 229 137 166 95 200 111
221 104 13 -5 117 -62 230 -128 139 -80 208 -126 216 -143 7 -15 11 -99 11
-222 0 -180 2 -201 19 -222 41 -51 63 -42 486 205 215 125 398 235 409 244 40
36 46 71 46 297 0 230 -3 247 -52 291 -19 18 -1201 709 -1295 757 -44 23 -110
21 -158 -4z"/>
<path d="M18450 3250 c0 -17 7 -20 50 -20 l50 0 0 -135 0 -135 25 0 25 0 0
135 0 135 50 0 c43 0 50 3 50 20 0 19 -7 20 -125 20 -118 0 -125 -1 -125 -20z"/>
<path d="M18730 3115 c0 -147 1 -155 20 -155 18 0 20 8 22 113 l3 112 39 -112
c34 -100 41 -113 61 -113 24 0 23 -2 89 185 14 39 15 37 15 -72 1 -106 2 -113
21 -113 19 0 20 7 20 156 l0 155 -32 -3 c-32 -3 -33 -5 -72 -117 l-40 -115
-39 117 -39 117 -34 0 -34 0 0 -155z"/>
<path d="M16868 2310 c-242 -30 -385 -138 -418 -316 -23 -122 10 -236 92 -309
80 -72 180 -102 453 -135 240 -29 324 -51 377 -98 27 -23 33 -77 13 -128 -36
-94 -147 -129 -385 -121 -181 6 -238 22 -296 81 -27 29 -45 59 -53 92 -7 27
-15 57 -18 67 -4 15 -18 17 -113 17 l-110 0 -6 -26 c-9 -36 12 -145 39 -203
30 -66 111 -142 187 -178 122 -58 183 -68 405 -68 180 0 208 2 282 24 152 43
262 130 305 241 15 41 21 78 21 145 0 111 -24 175 -90 236 -80 73 -176 103
-486 149 -242 36 -327 59 -356 97 -45 56 -12 140 70 181 101 50 351 48 457 -4
58 -28 105 -87 118 -148 11 -53 18 -56 124 -56 123 0 127 3 111 97 -32 186
-153 305 -357 347 -89 19 -279 27 -366 16z"/>
<path d="M12713 1894 l-133 -77 0 -166 0 -166 128 -72 c71 -40 137 -73 147
-73 18 0 188 91 248 132 l27 19 0 163 0 164 -133 76 c-73 42 -138 76 -143 76
-5 0 -69 -35 -141 -76z"/>
</g>
</svg>
